<?xml version="1.0" encoding="UTF-8"?>
<svg width="500px" height="500px" viewBox="0 0 500 500" version="1.1" xmlns="http://www.w3.org/2000/svg" xmlns:xlink="http://www.w3.org/1999/xlink">
    <!-- Generator: Sketch 46.2 (44496) - http://www.bohemiancoding.com/sketch -->
    <title>bloody-bird-logo</title>
    <desc>Created with Sketch.</desc>
    <defs></defs>
    <g id="Page-1" stroke="none" stroke-width="1" fill="none" fill-rule="evenodd">
        <g id="bloody-bird-logo" fill="#D8444A">
            <g id="Logo" transform="translate(38.000000, 103.000000)">
                <path d="M2.89061621e-05,146.766385 C0.113609868,97.254664 24.6983253,51.128171 65.3611174,24.0251113 C105.935408,-3.0189595 157.120286,-7.52887013 202.408232,12.0079001 C205.687923,13.3421124 208.749431,14.5775723 212.952703,16.2699438 C218.273167,18.4112157 221.283204,19.6226704 223.807466,20.6399299 C232.992616,24.3414803 240.068451,27.2133812 247.193056,30.1415545 C265.957061,37.8534569 282.284058,44.8344675 297.79246,51.8611802 C378.90224,88.6112667 425.44402,122.655169 424.686135,146.165881 C424.589999,149.148177 423.588058,152.56202 421.514652,156.460534 C409.283224,179.458625 367.802379,207.467618 305.602547,237.163991 C288.10106,245.519812 269.595886,253.737576 248.951352,262.44879 C241.07207,265.77355 233.229727,269.025823 223.852961,272.871763 C221.423744,273.868121 206.482957,279.97613 202.692498,281.536907 C157.630959,301.539209 106.236532,297.15628 65.4900334,270.060364 C24.6262502,242.886455 -0.0308165524,196.519295 2.89061621e-05,146.766385 Z M130.856807,220 C171.646796,220 204.713615,187.092929 204.713615,146.5 C204.713615,105.907071 171.646796,73 130.856807,73 C90.0668189,73 57,105.907071 57,146.5 C57,187.092929 90.0668189,220 130.856807,220 Z" id="Combined-Shape"></path>
                <path d="M130.856807,183.25 C151.251801,183.25 167.785211,166.796465 167.785211,146.5 C167.785211,126.203535 151.251801,109.75 130.856807,109.75 C110.461813,109.75 93.9284036,126.203535 93.9284036,146.5 C93.9284036,166.796465 110.461813,183.25 130.856807,183.25 Z" id="Oval-2"></path>
            </g>
        </g>
    </g>
</svg>