<?xml version="1.0" encoding="UTF-8"?>
<svg width="512px" height="512px" viewBox="0 0 512 512" version="1.1" xmlns="http://www.w3.org/2000/svg" xmlns:xlink="http://www.w3.org/1999/xlink">
    <!-- Generator: Sketch 48.2 (47327) - http://www.bohemiancoding.com/sketch -->
    <title>Artboard</title>
    <desc>Created with Sketch.</desc>
    <defs>
        <linearGradient x1="50%" y1="0%" x2="50%" y2="128.071014%" id="linearGradient-1">
            <stop stop-color="#FF565D" offset="0%"></stop>
            <stop stop-color="#DB3D7D" offset="100%"></stop>
        </linearGradient>
    </defs>
    <g id="iPhone" stroke="none" stroke-width="1" fill="none" fill-rule="evenodd">
        <g id="Artboard">
            <circle id="Oval" fill="url(#linearGradient-1)" cx="255" cy="255" r="255"></circle>
            <g id="Logo" transform="translate(80.000000, 133.000000)" fill="#FFFFFF" fill-rule="nonzero">
                <path d="M2.38902199e-05,121.822634 C0.093895714,80.725701 20.412548,42.4386582 54.0193286,19.941912 C87.5529648,-2.5058708 129.855986,-6.24929741 167.285341,9.96709168 C169.995923,11.0745473 172.526183,12.100034 176.000082,13.5047777 C180.397313,15.2821287 182.885033,16.2876901 184.971272,17.1320607 C192.562569,20.2045124 198.41057,22.588318 204.298877,25.0188322 C219.806858,31.4200545 233.300713,37.2146041 246.118019,43.0470885 C313.153223,73.5512964 351.61884,101.809251 350.992467,121.324189 C350.913013,123.799627 350.084934,126.633269 348.371316,129.869209 C338.262347,148.958648 303.979466,172.20736 252.572861,196.856671 C238.108319,203.792375 222.814256,210.613485 205.752065,217.84418 C199.240036,220.603879 192.758535,223.30341 185.008873,226.495712 C183.001186,227.322733 170.652999,232.392653 167.520279,233.688167 C130.278045,250.290968 87.8018362,246.652942 54.1258744,224.162126 C20.3529798,201.606571 -0.0254691097,163.119764 2.38902199e-05,121.822634 Z M108.149878,182.609795 C141.861783,182.609795 169.190682,155.295461 169.190682,121.601522 C169.190682,87.907584 141.861783,60.59325 108.149878,60.59325 C74.4379728,60.59325 47.1090742,87.907584 47.1090742,121.601522 C47.1090742,155.295461 74.4379728,182.609795 108.149878,182.609795 Z M108.149878,152.105658 C91.2939253,152.105658 77.629476,138.448492 77.629476,121.601522 C77.629476,104.754553 91.2939253,91.0973862 108.149878,91.0973862 C125.00583,91.0973862 138.67028,104.754553 138.67028,121.601522 C138.67028,138.448492 125.00583,152.105658 108.149878,152.105658 Z"></path>
            </g>
        </g>
    </g>
</svg>