<?xml version="1.0" encoding="UTF-8"?>
<svg width="2384px" height="380px" viewBox="0 0 2384 380" version="1.1" xmlns="http://www.w3.org/2000/svg" xmlns:xlink="http://www.w3.org/1999/xlink">
    <!-- Generator: Sketch 48.2 (47327) - http://www.bohemiancoding.com/sketch -->
    <title>Top Waves</title>
    <desc>Created with Sketch.</desc>
    <defs>
        <linearGradient x1="60.2117479%" y1="1.03749278%" x2="59.4732344%" y2="89.1080561%" id="linearGradient-1">
            <stop stop-color="#FF565D" offset="0%"></stop>
            <stop stop-color="#DB3D7D" offset="100%"></stop>
        </linearGradient>
        <linearGradient x1="60.2117479%" y1="1.03749278%" x2="60.2117479%" y2="119.043066%" id="linearGradient-2">
            <stop stop-color="#FF565D" offset="0%"></stop>
            <stop stop-color="#DB3D7D" offset="100%"></stop>
        </linearGradient>
    </defs>
    <g id="Desktop--Login-Page-with-Fous-and-Error" stroke="none" stroke-width="1" fill="none" fill-rule="evenodd">
        <g id="Top-Waves" transform="translate(0.000000, -156.000000)">
            <g transform="translate(1194.000000, 268.000000) rotate(-180.000000) translate(-1194.000000, -268.000000) " id="Group-14">
                <g opacity="0.70946558" transform="translate(4.000000, 0.000000)" fill="url(#linearGradient-1)">
                    <g id="Group-19">
                        <path d="M0,1.62459014 C241.431983,22.1433424 1055.11518,80.993487 1319.55149,80.993487 C1636.22974,80.993487 1820.31676,27.9138887 2082.21635,8.27949469 C2212.31665,-1.47401631 2312.9112,-1.63385194 2384,7.79998779 L2384,219.637163 L6,219.637163 L0,1.62459014 Z" id="Rectangle-26"></path>
                    </g>
                </g>
                <g transform="translate(0.000000, 19.661032)" fill="url(#linearGradient-2)">
                    <path d="M4.54747351e-13,3.29895903 C233.930517,19.4248931 1057.54702,76.0146725 1323.55149,76.0146725 C1640.04423,76.0146725 1799.38571,22.5000713 2086.21635,5.30068017 C2204.0808,-1.76689339 2304.67535,-1.7674671 2388,5.29895903 L2388,515.835183 L0,515.835183 L4.54747351e-13,3.29895903 Z" id="Rectangle-26"></path>
                </g>
            </g>
        </g>
    </g>
</svg>