<?xml version="1.0" encoding="UTF-8"?>
<svg width="2000px" height="174px" viewBox="0 0 2000 174" version="1.1" xmlns="http://www.w3.org/2000/svg" xmlns:xlink="http://www.w3.org/1999/xlink">
    <!-- Generator: Sketch 50.2 (55047) - http://www.bohemiancoding.com/sketch -->
    <title>waves-halli</title>
    <desc>Created with Sketch.</desc>
    <defs>
        <linearGradient x1="60.2117479%" y1="1.03749278%" x2="59.4732344%" y2="89.1080561%" id="linearGradient-1">
            <stop stop-color="#FF565D" offset="0%"></stop>
            <stop stop-color="#DB3D7D" offset="100%"></stop>
        </linearGradient>
        <linearGradient x1="60.2117479%" y1="1.03749278%" x2="60.2117479%" y2="119.043066%" id="linearGradient-2">
            <stop stop-color="#FF565D" offset="0%"></stop>
            <stop stop-color="#DB3D7D" offset="100%"></stop>
        </linearGradient>
    </defs>
    <g id="Page-1" stroke="none" stroke-width="1" fill="none" fill-rule="evenodd">
        <g id="waves-halli" transform="translate(0.000000, -1.000000)" fill-rule="nonzero">
            <g id="Group-14" transform="translate(1000.000000, 87.500000) rotate(-180.000000) translate(-1000.000000, -87.500000) ">
                <g id="Group" opacity="0.70946558" transform="translate(3.350084, 0.000000)" fill="url(#linearGradient-1)">
                    <g id="Group-19">
                        <path d="M0,0.260546247 C202.204341,6.93279709 883.681055,26.0695809 1105.152,26.0695809 C1370.37667,26.0695809 1524.5534,8.8092529 1743.89979,2.4245761 C1852.86152,-0.747053005 1937.11156,-0.799028066 1996.64992,2.26865091 L1996.64992,71.1534815 L5.02512563,71.1534815 L0,0.260546247 Z" id="Rectangle-26"></path>
                    </g>
                </g>
                <g id="Group" transform="translate(0.000000, 5.857869)" fill="url(#linearGradient-2)">
                    <path d="M3.80860428e-13,1.34048459 C195.921706,6.58428673 885.717772,24.9860491 1108.50209,24.9860491 C1373.57138,24.9860491 1507.02321,7.58426764 1747.24987,1.99140066 C1845.96382,-0.306820161 1930.21386,-0.30700672 2000,1.99084098 L2000,168.006089 L0,168.006089 L3.80860428e-13,1.34048459 Z" id="Rectangle-26"></path>
                </g>
            </g>
        </g>
    </g>
</svg>